<svg height="100" width="100" fill="#FFF" xmlns="http://www.w3.org/2000/svg"><defs><style>.a{fill:#fff}</style></defs><path class="a" d="M48.28 44.21a.85.85 0 01-.55-.2l-14.57-12.5a.85.85 0 01.21-1.42L83.68 8.22a.85.85 0 01.93 1.39L48.86 44a.85.85 0 01-.58.21zm-13-13.1l12.94 11.1L80 11.67z"/><path class="a" d="M73.63 60.41a.86.86 0 01-.45-.13L53 47.75a.85.85 0 01-.21-1.26l30.59-38a.85.85 0 011.5.7L74.46 59.73a.85.85 0 01-.5.61.84.84 0 01-.33.07zM54.69 46.82L73 58.19l9.43-45.92z"/><path class="a" d="M47.82 58.43a.85.85 0 01-.75-1.25l5.6-10.55a.85.85 0 011.5.8l-4.29 8.08 8.73-4.69a.85.85 0 11.8 1.5l-11.19 6a.86.86 0 01-.4.11z"/><path class="a" d="M47.82 58.43a.85.85 0 01-.82-.88l.45-14.23a.86.86 0 01.88-.82.85.85 0 01.82.88l-.45 14.23a.85.85 0 01-.88.82zM18.07 91.85a.85.85 0 01-.64-1.41L41.33 63a.85.85 0 111.28 1.12l-23.9 27.4a.85.85 0 01-.64.33zm7.62-32.96a.85.85 0 01-.64-1.41l11.16-12.79a.85.85 0 111.28 1.12L26.33 58.6a.85.85 0 01-.64.29zm21.62 21.73a.85.85 0 01-.64-1.41l15.74-18a.85.85 0 111.28 1.12L48 80.33a.85.85 0 01-.69.29zm-17.4 10.06a.85.85 0 01-.64-1.41l23.52-27a.85.85 0 111.28 1.12l-23.52 27a.85.85 0 01-.64.29zM16 81.46a.85.85 0 01-.64-1.41l23.76-27.26a.85.85 0 111.28 1.12L16.63 81.17a.85.85 0 01-.63.29z"/></svg>