<svg height="100" width="100" xmlns="http://www.w3.org/2000/svg" viewBox="0 0 846.66 846.66" fill-rule="evenodd" clip-rule="evenodd" shape-rendering="geometricPrecision" text-rendering="geometricPrecision" image-rendering="optimizeQuality"><path d="M325.63 237.02v43.59l72.06-37.08v-49.3l-72.06 42.79zm0 313.15l72.06-37.08v-62.22l-72.06 37.08v62.22zm96.7-38.55l94.97 30.54v-64.05l-94.97-30.54v64.05zm94.97 56.34l-94.97-30.53v124.82h94.97v-94.29zm-119.61-27.24l-72.06 37.08v84.45h72.06V540.72zm-72.06-80.41l72.06-37.08v-62.21l-72.06 37.08v62.21zm96.7-38.54l94.97 30.53v-64.05l-94.97-30.53v64.05zm-96.7-51.31l72.06-37.08v-62.22l-72.06 37.09v62.21zm96.7-38.54l94.97 30.53V298.4l-94.97-30.53v64.05zm0-89.85l94.97 30.53v-45.95l-94.97-35.16v50.58zm194.11 206.12v214.06h62.72V468.78l-62.72-20.59zM591.8 662.25V450.22l-46.13 22.88v189.15h46.13zM255.25 450.41v211.84h45.74V473.1l-45.74-22.69zm-24.64 211.84V448.06l-63.1 20.72v193.47h63.1zM94.44 613.2v49.05h48.43v-49.78l-27.78-7.96-20.65 8.69zM69.8 596.94l43.86-18.46 29.21 8.38V450.99l101.58-33.37 56.54 28.05V223.04l106.57-63.26 134.37 49.76v237.99l60.28-29.91 101.58 33.37v135.87l29.22-8.38 43.85 18.46v89.94H69.8v-89.94zm682.42 65.31V613.2l-20.64-8.69-27.79 7.96v49.78h48.43z" fill-rule="nonzero"/></svg>