<svg height='100px' width='100px'  fill="#FFFFFF" xmlns="http://www.w3.org/2000/svg" viewBox="0 0 100 100" x="0px" y="0px"><defs><style>.a{fill:#FFFFFF;}</style></defs><title>100icons2017</title><path class="a" d="M48.28,44.21a.85.85,0,0,1-.55-.2L33.16,31.51a.85.85,0,0,1,.21-1.42L83.68,8.22a.85.85,0,0,1,.93,1.39L48.86,44A.85.85,0,0,1,48.28,44.21Zm-13-13.1,12.94,11.1L80,11.67Z"></path><path class="a" d="M73.63,60.41a.86.86,0,0,1-.45-.13L53,47.75a.85.85,0,0,1-.21-1.26l30.59-38a.85.85,0,0,1,1.5.7L74.46,59.73a.85.85,0,0,1-.5.61A.84.84,0,0,1,73.63,60.41ZM54.69,46.82,73,58.19l9.43-45.92Z"></path><path class="a" d="M47.82,58.43a.85.85,0,0,1-.75-1.25l5.6-10.55a.85.85,0,0,1,1.5.8l-4.29,8.08,8.73-4.69a.85.85,0,1,1,.8,1.5l-11.19,6A.86.86,0,0,1,47.82,58.43Z"></path><path class="a" d="M47.82,58.43h0a.85.85,0,0,1-.82-.88l.45-14.23a.86.86,0,0,1,.88-.82.85.85,0,0,1,.82.88l-.45,14.23A.85.85,0,0,1,47.82,58.43Z"></path><path class="a" d="M18.07,91.85a.85.85,0,0,1-.64-1.41L41.33,63a.85.85,0,1,1,1.28,1.12l-23.9,27.4A.85.85,0,0,1,18.07,91.85Z"></path><path class="a" d="M25.69,58.89a.85.85,0,0,1-.64-1.41L36.21,44.69a.85.85,0,1,1,1.28,1.12L26.33,58.6A.85.85,0,0,1,25.69,58.89Z"></path><path class="a" d="M47.31,80.62a.85.85,0,0,1-.64-1.41l15.74-18a.85.85,0,1,1,1.28,1.12L48,80.33A.85.85,0,0,1,47.31,80.62Z"></path><path class="a" d="M29.91,90.68a.85.85,0,0,1-.64-1.41l23.52-27a.85.85,0,1,1,1.28,1.12l-23.52,27A.85.85,0,0,1,29.91,90.68Z"></path><path class="a" d="M16,81.46a.85.85,0,0,1-.64-1.41L39.12,52.79a.85.85,0,1,1,1.28,1.12L16.63,81.17A.85.85,0,0,1,16,81.46Z"></path></svg>