<svg height='100px' width='100px'  fill="#000000" xmlns="http://www.w3.org/2000/svg" xmlns:xlink="http://www.w3.org/1999/xlink" xml:space="preserve" version="1.1" style="shape-rendering:geometricPrecision;text-rendering:geometricPrecision;image-rendering:optimizeQuality;" viewBox="0 0 846.66 846.66" x="0px" y="0px" fill-rule="evenodd" clip-rule="evenodd"><defs><style type="text/css">
   
    .fil0 {fill:#000000;fill-rule:nonzero}
   
  </style></defs><g><path class="fil0" d="M325.63 237.02l0 43.59 72.06 -37.08 0 -49.3 -72.06 42.79zm0 313.15l72.06 -37.08 0 -62.22 -72.06 37.08 0 62.22zm96.7 -38.55l94.97 30.54 0 -64.05 -94.97 -30.54 0 64.05zm94.97 56.34l-94.97 -30.53 0 124.82 94.97 0 0 -94.29zm-119.61 -27.24l-72.06 37.08 0 84.45 72.06 0 0 -121.53zm-72.06 -80.41l72.06 -37.08 0 -62.21 -72.06 37.08 0 62.21zm96.7 -38.54l94.97 30.53 0 -64.05 -94.97 -30.53 0 64.05zm-96.7 -51.31l72.06 -37.08 0 -62.22 -72.06 37.09 0 62.21zm96.7 -38.54l94.97 30.53 0 -64.05 -94.97 -30.53 0 64.05zm0 -89.85l94.97 30.53 0 -45.95 -94.97 -35.16 0 50.58zm194.11 206.12l0 214.06 62.72 0 0 -68.32 0 -125.15 -62.72 -20.59zm-24.64 214.06l0 -212.03 -46.13 22.88 0 189.15 46.13 0zm-336.55 -211.84l0 211.84 45.74 0 0 -189.15 -45.74 -22.69zm-24.64 211.84l0 -214.19 -63.1 20.72 0 125.15 0 68.32 63.1 0zm-136.17 -49.05l0 49.05 48.43 0 0 -49.78 -27.78 -7.96 -20.65 8.69zm-24.64 -16.26l43.86 -18.46 29.21 8.38 0 -135.87 101.58 -33.37 56.54 28.05 0 -222.63 106.57 -63.26 134.37 49.76 0 237.99 60.28 -29.91 101.58 33.37 0 135.87 29.22 -8.38 43.85 18.46 0 89.94c-235.69,0 -471.37,0 -707.06,0l0 -89.94zm682.42 65.31l0 -49.05 -20.64 -8.69 -27.79 7.96 0 49.78 48.43 0z"></path></g></svg>